<?xml version="1.0" standalone="no"?>
<!DOCTYPE svg PUBLIC "-//W3C//DTD SVG 20010904//EN"
 "http://www.w3.org/TR/2001/REC-SVG-20010904/DTD/svg10.dtd">
<svg version="1.0" xmlns="http://www.w3.org/2000/svg"
 width="135.000000pt" height="135.000000pt" viewBox="0 0 135.000000 135.000000"
 preserveAspectRatio="xMidYMid meet">
<metadata>
Created by potrace 1.11, written by Peter Selinger 2001-2013
</metadata>
<g transform="translate(0.000000,135.000000) scale(0.100000,-0.100000)"
fill="#000000" stroke="none">
<path d="M133 1073 c-18 -7 -16 -50 2 -57 12 -4 15 -25 15 -99 0 -109 11 -150
46 -166 80 -36 351 -31 404 8 23 17 25 26 30 117 l5 99 40 0 40 0 5 -99 c5
-91 7 -100 30 -117 38 -27 190 -42 298 -29 138 17 152 34 152 186 0 75 3 96
15 100 18 7 20 35 3 52 -9 9 -142 12 -543 11 -291 0 -536 -3 -542 -6z m596
-22 c8 -5 11 -16 6 -30 -5 -18 -14 -21 -66 -21 -56 0 -59 1 -59 24 0 13 6 27
13 29 20 9 91 7 106 -2z m-179 -41 c17 -17 20 -33 20 -98 0 -53 -5 -84 -15
-99 -39 -56 -290 -55 -327 1 -4 6 -8 52 -8 102 0 114 -2 112 178 113 119 1
134 -1 152 -19z m558 4 c20 -14 22 -23 22 -102 0 -48 -4 -92 -8 -98 -37 -56
-288 -57 -327 -1 -10 15 -15 47 -15 104 0 111 3 113 175 113 102 0 135 -3 153
-16z"/>
<path d="M344 445 c-3 -8 -1 -37 5 -64 6 -28 8 -78 4 -111 -7 -71 -10 -70 102
-34 88 29 125 56 125 90 0 38 -33 65 -124 100 -100 39 -105 39 -112 19z"/>
<path d="M880 424 c-91 -37 -110 -53 -110 -93 1 -42 23 -61 110 -92 124 -44
120 -46 122 66 1 52 2 107 2 123 1 38 -22 37 -124 -4z"/>
<path d="M620 381 c-14 -27 -13 -94 2 -109 17 -17 93 -15 107 2 26 31 18 98
-13 118 -6 4 -28 8 -48 8 -27 0 -40 -5 -48 -19z"/>
</g>
</svg>
